<svg width="182" height="56" viewBox="0 0 182 56" fill="none" xmlns="http://www.w3.org/2000/svg">
<path d="M106.234 43.3098C85.7047 43.3098 65.1754 43.3025 44.6461 43.3262C43.2538 43.3278 42.6732 42.381 42.6743 41.3659C42.6888 28.41 42.6837 15.4541 42.6842 2.49818C42.6842 1.47169 43.1523 0.793142 43.9938 0.608868C44.1508 0.574481 44.3168 0.569891 44.4785 0.569891C85.6623 0.568311 126.846 0.568235 168.03 0.568761C169.103 0.568837 169.786 1.23581 169.822 2.31188C169.825 2.39939 169.823 2.48712 169.823 2.57471C169.823 15.4931 169.823 28.4114 169.824 41.3298C169.824 41.6825 169.811 42.0326 169.65 42.3552C169.353 42.953 168.883 43.296 168.198 43.3088C168.06 43.3114 167.922 43.3098 167.784 43.3098C147.268 43.3098 126.751 43.3098 106.234 43.3098Z" fill="#3D512C"/>
<path d="M0.918213 41.8066C0.921674 41.6191 0.92822 41.4318 0.92822 41.2443C0.928747 28.2717 0.928822 15.299 0.928446 2.32628C0.928446 2.23893 0.922652 2.15156 0.919492 2.06421C1.11535 1.06458 1.70994 0.568571 2.71927 0.568496C14.8891 0.568119 27.0589 0.568119 39.2287 0.568496C40.3537 0.568496 41.0277 1.22199 41.0661 2.34577C41.0677 2.39581 41.0667 2.44592 41.0667 2.49596C41.0667 15.452 41.0664 28.408 41.0676 41.3641C41.0677 41.9191 40.9679 42.434 40.5521 42.843C40.2536 43.1367 39.9011 43.3024 39.4783 43.3077C39.3905 43.3088 39.3028 43.3095 39.2151 43.3095C27.0578 43.3096 14.9005 43.3097 2.74319 43.3094C1.69195 43.3094 1.10888 42.8279 0.918213 41.8066Z" fill="#62BA51"/>
<path d="M75.6644 46.9755C76.2333 46.9685 76.7824 47.0655 77.3176 47.2626C77.5159 47.3357 77.603 47.4059 77.5206 47.6378C77.4122 47.9424 77.3375 48.2609 77.2734 48.5784C77.2289 48.7989 77.1748 48.8666 76.9379 48.7558C76.4672 48.5357 75.96 48.4599 75.4387 48.4855C75.2481 48.4949 75.0678 48.5357 74.8979 48.6214C74.3755 48.8854 74.3051 49.4772 74.7584 49.848C75.0525 50.0886 75.4091 50.2169 75.7549 50.3602C76.113 50.5086 76.4675 50.6609 76.7948 50.8727C77.6091 51.3994 77.9651 52.1447 77.8751 53.105C77.7893 54.0214 77.3148 54.6782 76.4806 55.04C75.2517 55.5729 74.017 55.4583 72.795 54.9834C72.6418 54.9238 72.5896 54.8467 72.6421 54.671C72.7383 54.3488 72.8192 54.0194 72.8721 53.6875C72.9139 53.4254 72.9737 53.367 73.2425 53.4904C73.8744 53.7809 74.542 53.9395 75.2475 53.8321C75.7285 53.7588 76.0064 53.5312 76.0881 53.1516C76.1714 52.765 76.018 52.4417 75.591 52.1971C75.3215 52.0427 75.027 51.9316 74.7437 51.8013C74.5057 51.6919 74.2586 51.5984 74.0309 51.4707C73.0365 50.9131 72.5792 50.0789 72.723 49.1108C72.8796 48.0569 73.5947 47.3153 74.6952 47.0659C75.0143 46.9937 75.3374 46.9631 75.6644 46.9755Z" fill="#373435"/>
<path d="M118.619 49.3599C118.469 48.9669 118.337 48.6053 118.194 48.2474C118.137 48.102 118.184 48.0161 118.308 47.9382C119.422 47.2392 120.608 47.0135 121.848 47.5195C122.979 47.9815 123.461 49.3304 123.027 50.6445C122.818 51.2737 122.441 51.7995 122.007 52.2897C121.562 52.7934 121.064 53.244 120.481 53.7464C121.356 53.7464 122.138 53.76 122.919 53.7395C123.215 53.7317 123.357 53.7827 123.315 54.1158C123.269 54.483 123.465 54.9657 123.237 55.1948C123.026 55.4064 122.547 55.2505 122.187 55.2522C120.922 55.2584 119.657 55.2436 118.393 55.2626C118.087 55.2672 118.048 55.166 118.022 54.8883C117.971 54.3529 118.153 53.9857 118.557 53.632C119.29 52.99 119.997 52.3131 120.626 51.5636C120.941 51.1889 121.228 50.7967 121.368 50.317C121.654 49.3335 121.022 48.6001 120.01 48.7438C119.761 48.7791 119.517 48.8396 119.295 48.9581C119.075 49.0751 118.867 49.2113 118.619 49.3599Z" fill="#373435"/>
<path d="M110.941 49.012C110.515 49.225 110.153 49.3942 109.803 49.585C109.587 49.7031 109.438 49.7471 109.428 49.4199C109.425 49.3341 109.392 49.2494 109.375 49.1637C109.216 48.3506 109.216 48.3505 109.974 47.9778C110.109 47.9117 110.257 47.8646 110.377 47.7794C110.992 47.3452 111.69 47.3633 112.393 47.3789C112.588 47.3833 112.616 47.4641 112.616 47.6283C112.612 50.0934 112.612 52.5585 112.617 55.0236C112.617 55.2002 112.571 55.2646 112.387 55.2583C112.011 55.2455 111.634 55.2362 111.26 55.2607C110.987 55.2785 110.933 55.1807 110.935 54.9256C110.946 53.0987 110.941 51.2717 110.941 49.4448V49.012Z" fill="#373435"/>
<path d="M69.3998 51.153C69.3998 49.9156 69.4092 48.678 69.3927 47.4408C69.3889 47.1515 69.4782 47.0745 69.7539 47.0913C70.128 47.1141 70.5047 47.1049 70.8798 47.0939C71.08 47.0879 71.1655 47.1358 71.1648 47.3617C71.1572 49.9115 71.1576 52.4614 71.1642 55.0112C71.1647 55.2179 71.0885 55.2629 70.9022 55.2579C70.502 55.2471 70.1001 55.2365 69.7012 55.2611C69.4366 55.2774 69.3937 55.1719 69.3954 54.9403C69.4046 53.6779 69.3998 52.4155 69.3998 51.153Z" fill="#373435"/>
<path d="M117.2 54.2824C117.205 54.9237 116.779 55.3902 116.185 55.394C115.594 55.3979 115.163 54.9319 115.163 54.289C115.162 53.6462 115.588 53.1793 116.179 53.1749C116.77 53.1706 117.196 53.6323 117.2 54.2824Z" fill="#373435"/>
<path d="M115.163 50.3638C115.167 49.7212 115.598 49.2596 116.192 49.2624C116.782 49.2651 117.201 49.7311 117.201 50.3837C117.2 51.0223 116.764 51.4895 116.172 51.4853C115.585 51.4811 115.159 51.0076 115.163 50.3638Z" fill="#373435"/>
<path d="M58.3509 16.9739C56.2359 16.8271 54.1142 16.922 52.015 16.5666C51.4336 16.4682 50.8797 16.2779 50.3297 16.0642C49.0809 15.579 48.4346 14.6385 48.2454 13.3551C48.051 12.036 48.1717 10.7375 48.5532 9.45965C48.9476 8.13866 49.8499 7.32527 51.1189 6.88193C52.1786 6.5118 53.2843 6.37139 54.3962 6.27937C57.2127 6.04619 60.0302 6.09434 62.8465 6.2814C63.5579 6.32858 64.2679 6.40743 64.9655 6.57026C67.0302 7.05213 68.1699 8.34491 68.3864 10.4604C68.4182 10.7713 68.4291 11.0845 68.4626 11.3952C68.4856 11.6095 68.4065 11.6762 68.1925 11.6711C67.6413 11.658 67.0894 11.6564 66.5384 11.6717C66.3111 11.678 66.2285 11.6074 66.2272 11.3792C66.2248 10.9535 66.167 10.5338 66.0647 10.1175C65.8807 9.36891 65.4254 8.89645 64.6915 8.67079C63.6629 8.35454 62.5982 8.2878 61.5369 8.24114C59.0933 8.13377 56.6509 8.16989 54.2183 8.45747C53.4235 8.55145 52.6319 8.66658 51.8776 8.96394C51.263 9.20631 50.8682 9.6188 50.688 10.2623C50.4392 11.1502 50.412 12.0353 50.629 12.9297C50.791 13.5978 51.1896 14.0513 51.8305 14.3141C52.8989 14.7521 54.0278 14.8045 55.1525 14.8137C57.1822 14.8302 59.2126 14.7703 61.2422 14.7877C62.6943 14.8002 64.1483 14.8621 65.5699 15.2132C65.7759 15.264 65.9788 15.3287 66.1808 15.3942C67.667 15.8755 68.5409 16.8736 68.7821 18.4284C69.0055 19.869 68.9846 21.2899 68.5664 22.6983C68.3067 23.5733 67.7685 24.2116 66.9992 24.6779C66.1016 25.2221 65.1117 25.4709 64.0816 25.5708C60.428 25.9251 56.7731 25.8478 53.1199 25.5652C52.4217 25.5112 51.7403 25.3424 51.0629 25.153C49.5214 24.722 48.6565 23.7147 48.3907 22.1539C48.2643 21.4114 48.22 20.6638 48.1776 19.9142C48.1643 19.6767 48.2487 19.6155 48.474 19.6172C49.0001 19.6213 49.5273 19.6147 50.0524 19.5837C50.3257 19.5676 50.4298 19.6302 50.4141 19.9258C50.3824 20.5271 50.4738 21.1219 50.5583 21.7177C50.663 22.4563 51.0843 22.911 51.753 23.1717C52.4601 23.4475 53.2057 23.5514 53.9537 23.6161C56.769 23.8596 59.5861 23.8545 62.4009 23.6129C63.1725 23.5466 63.9477 23.4736 64.6949 23.2414C65.7314 22.9194 66.3935 22.2643 66.5505 21.1615C66.6734 20.2987 66.6672 19.4406 66.4351 18.5938C66.2561 17.9411 65.8557 17.5122 65.1937 17.3114C64.5165 17.106 63.8248 16.9897 63.1238 16.9804C61.5331 16.9596 59.9419 16.9739 58.3509 16.9739Z" fill="#FDFDFD"/>
<path d="M145.846 15.9732C145.846 12.8814 145.852 9.78942 145.837 6.69755C145.835 6.35338 145.935 6.29296 146.255 6.29348C152.007 6.30334 157.76 6.30349 163.513 6.29318C163.839 6.29258 163.958 6.36196 163.928 6.70296C163.895 7.08822 163.893 7.48099 163.929 7.86579C163.963 8.23201 163.813 8.28754 163.487 8.28679C159.264 8.27663 155.04 8.28009 150.816 8.28009C150.027 8.28009 149.236 8.29995 148.448 8.27091C148.1 8.25812 148.041 8.37595 148.043 8.69311C148.058 10.5456 148.059 12.3984 148.043 14.2509C148.041 14.5666 148.132 14.6421 148.439 14.6415C153.265 14.6322 158.09 14.6392 162.915 14.6263C163.278 14.6253 163.399 14.7121 163.367 15.0787C163.333 15.4638 163.344 15.855 163.365 16.2419C163.378 16.4989 163.308 16.5912 163.036 16.5814C162.461 16.5608 161.884 16.5752 161.307 16.5752C157.033 16.5752 152.759 16.5807 148.486 16.5655C148.109 16.5642 148.039 16.6726 148.042 17.0235C148.059 19.1139 148.058 21.2045 148.043 23.2948C148.041 23.6107 148.13 23.6871 148.44 23.6865C153.528 23.6769 158.617 23.6835 163.705 23.6714C164.054 23.6705 164.155 23.7635 164.13 24.1035C164.1 24.5144 164.112 24.9296 164.128 25.3421C164.136 25.5631 164.053 25.6362 163.847 25.6096C163.798 25.6033 163.747 25.6088 163.697 25.6088C157.881 25.6088 152.066 25.6059 146.25 25.6162C145.927 25.6168 145.835 25.5489 145.837 25.2114C145.852 22.132 145.846 19.0526 145.846 15.9732Z" fill="#FDFDFD"/>
<path d="M131.117 25.7096C129.075 25.8108 127.032 25.8655 124.995 25.6541C124.372 25.5895 123.751 25.5167 123.148 25.3368C121.242 24.768 120.28 23.3956 119.91 21.5272C119.664 20.2808 119.663 19.0121 119.635 17.7509C119.587 15.5361 119.597 13.3204 119.906 11.1188C120.006 10.4104 120.194 9.72652 120.453 9.05918C120.992 7.6731 122.108 7.02155 123.462 6.65436C124.509 6.37054 125.583 6.26 126.657 6.21952C129.75 6.10282 132.845 6.0193 135.938 6.20568C136.95 6.26663 137.957 6.41839 138.908 6.79905C139.839 7.17136 140.453 7.83434 140.708 8.81651C141.001 9.94638 141.16 11.0956 141.24 12.2586C141.254 12.4735 141.177 12.5105 140.989 12.5049C140.438 12.4886 139.887 12.4792 139.335 12.4827C139.126 12.484 139.062 12.4156 139.055 12.2026C139.029 11.4541 139.013 10.7059 138.806 9.97234C138.615 9.29544 138.202 8.87159 137.542 8.66091C136.539 8.34097 135.499 8.28513 134.461 8.24864C131.843 8.15647 129.224 8.13675 126.608 8.30793C125.684 8.36835 124.762 8.45639 123.871 8.74541C123.188 8.96693 122.746 9.39898 122.516 10.082C122.218 10.9679 122.082 11.8827 122.03 12.8058C121.904 15.056 121.861 17.3087 122.019 19.5597C122.073 20.3211 122.207 21.0719 122.4 21.8123C122.592 22.5477 123.055 23.0322 123.744 23.3206C124.293 23.5504 124.871 23.6693 125.46 23.6937C128.968 23.8392 132.476 23.8079 135.982 23.6238C136.367 23.6036 136.754 23.5349 137.13 23.4462C138.437 23.1381 138.921 22.5702 139.089 21.2324C139.16 20.6708 139.172 20.1089 139.157 19.5464C139.15 19.3 139.196 19.1902 139.478 19.2012C140.053 19.2237 140.63 19.2101 141.207 19.2065C141.36 19.2055 141.476 19.2131 141.469 19.4191C141.426 20.7332 141.349 22.0371 140.932 23.3048C140.481 24.675 139.394 25.1566 138.128 25.4261C137.155 25.6331 136.166 25.6911 135.177 25.7048C133.824 25.7237 132.471 25.7096 131.117 25.7096Z" fill="#FDFDFD"/>
<path d="M73.2553 15.9676C73.2553 12.8769 73.2593 9.78611 73.2488 6.69544C73.2478 6.39612 73.3077 6.29221 73.6335 6.29296C78.507 6.30394 83.3806 6.2974 88.2542 6.30334C89.195 6.30447 90.1276 6.39093 91.0387 6.65699C92.6104 7.11606 93.3882 8.23532 93.6308 9.77746C93.9253 11.6505 93.8717 13.517 93.4036 15.361C93.0236 16.8586 91.9726 17.6056 90.5233 17.9165C89.7555 18.0813 88.981 18.0768 88.2057 18.0775C84.0963 18.0814 79.987 18.0845 75.8777 18.0703C75.5213 18.0691 75.4534 18.1755 75.4554 18.5059C75.4696 20.7582 75.4577 23.0106 75.4695 25.2629C75.4709 25.5405 75.4068 25.6301 75.1202 25.6157C74.6203 25.5905 74.1173 25.5893 73.6175 25.6158C73.313 25.6319 73.248 25.5279 73.249 25.2398C73.2591 22.1491 73.2553 19.0583 73.2553 15.9676Z" fill="#FDFDFD"/>
<path d="M117.867 25.6086C117.07 25.6086 116.319 25.6005 115.568 25.6137C115.357 25.6174 115.293 25.4916 115.214 25.3465C114.525 24.0855 113.827 22.8289 113.147 21.563C113.03 21.3454 112.901 21.2699 112.653 21.2703C107.953 21.2784 103.252 21.2785 98.5522 21.2702C98.3021 21.2697 98.1794 21.3499 98.0651 21.5681C97.4099 22.8189 96.7296 24.0566 96.0764 25.3083C95.9527 25.5453 95.8095 25.6202 95.5523 25.6144C94.8286 25.5981 94.1044 25.6087 93.3795 25.6087C93.3613 25.4231 93.47 25.3206 93.5339 25.2061C96.9861 19.0171 100.443 12.8307 103.892 6.6398C104.03 6.39239 104.172 6.28216 104.47 6.29209C105.234 6.3176 105.999 6.30443 106.763 6.29773C106.94 6.29623 107.058 6.32715 107.156 6.5015C110.705 12.8228 114.26 19.1408 117.813 25.4596C117.83 25.4899 117.838 25.5258 117.867 25.6086Z" fill="#FDFDFD"/>
<path d="M148.938 35.6481C148.201 35.5658 147.459 35.6316 146.728 35.4915C145.804 35.3144 145.469 34.9062 145.473 33.9678C145.478 32.7344 145.953 32.1927 147.202 32.0492C148.425 31.9085 149.654 31.9144 150.877 32.0538C151.839 32.1636 152.299 32.666 152.349 33.5915C152.356 33.7195 152.387 33.8766 152.187 33.8317C151.992 33.7881 151.708 33.9999 151.608 33.6859C151.333 32.8192 151.287 32.7836 150.383 32.7032C149.329 32.6094 148.283 32.6631 147.235 32.7862C146.219 32.9055 146.156 33.5829 146.335 34.3412C146.404 34.6298 146.663 34.7363 146.923 34.8077C147.253 34.8979 147.592 34.8973 147.93 34.9019C148.957 34.9161 149.986 34.827 151.008 34.9729C151.576 35.054 152.162 35.1796 152.371 35.8032C152.617 36.5352 152.644 37.2941 152.19 37.9657C151.915 38.3727 151.437 38.4975 150.97 38.5456C149.583 38.6885 148.193 38.7037 146.811 38.4958C145.831 38.3481 145.363 37.6867 145.479 36.7059C145.486 36.6453 145.47 36.5593 145.545 36.5522C145.719 36.5356 145.896 36.531 146.071 36.5391C146.357 36.5522 146.218 36.7826 146.23 36.9093C146.295 37.5657 146.419 37.7371 147.086 37.8379C148.357 38.0298 149.635 38.012 150.902 37.8096C151.685 37.6847 152.068 36.519 151.536 35.933C151.318 35.6918 150.999 35.6655 150.703 35.6545C150.115 35.6329 149.526 35.6481 148.938 35.6481Z" fill="#FDFDFD"/>
<path d="M122.527 31.957C123.433 31.9783 124.301 31.9017 125.154 32.0892C126.058 32.2878 126.378 32.5964 126.513 33.5005C126.694 34.7068 126.682 35.921 126.516 37.1274C126.395 38.008 125.851 38.4775 124.857 38.5618C123.357 38.6889 121.854 38.6873 120.354 38.5637C119.42 38.4868 118.917 38.0129 118.786 37.0863C118.618 35.9045 118.617 34.7162 118.779 33.5342C118.909 32.5904 119.339 32.1869 120.283 32.0367C121.043 31.9157 121.809 31.9864 122.527 31.957Z" fill="#FDFDFD"/>
<path d="M138.581 35.6325C138.603 35.7208 138.679 35.6979 138.733 35.7124C139.38 35.8871 139.586 36.1365 139.598 36.7964C139.608 37.3089 139.589 37.8222 139.605 38.3345C139.616 38.7055 139.35 38.5498 139.188 38.5675C139.029 38.5849 138.835 38.6386 138.849 38.3367C138.87 37.8751 138.866 37.4111 138.847 36.9491C138.82 36.2725 138.55 35.9656 137.885 35.953C136.433 35.9255 134.98 35.9424 133.528 35.9311C133.292 35.9293 133.307 36.0624 133.307 36.2196C133.31 36.9074 133.29 37.596 133.316 38.2828C133.329 38.6013 133.162 38.5841 132.951 38.5743C132.748 38.5649 132.543 38.6401 132.547 38.2789C132.565 36.2907 132.559 34.3021 132.55 32.3138C132.549 32.0828 132.617 32.0175 132.846 32.0189C134.486 32.029 136.127 32.0101 137.767 32.0325C139.241 32.0527 139.709 32.5551 139.698 34.0316C139.696 34.2188 139.689 34.4071 139.667 34.593C139.608 35.1114 139.319 35.4304 138.811 35.5582C138.735 35.5775 138.636 35.544 138.581 35.6325Z" fill="#FDFDFD"/>
<path d="M65.6744 35.6365C65.8798 35.6971 65.9824 35.7279 66.0853 35.7578C66.5034 35.8794 66.7597 36.1488 66.7755 36.5889C66.797 37.1889 66.8082 37.7906 66.7882 38.3903C66.7771 38.7244 66.4858 38.5284 66.3243 38.5672C66.1699 38.6042 66.0361 38.5867 66.0456 38.3515C66.0629 37.9266 66.0563 37.5004 66.0482 37.0749C66.0325 36.2517 65.7549 35.9527 64.9404 35.9434C63.5494 35.9274 62.158 35.9409 60.7669 35.9302C60.5452 35.9284 60.4954 36.0057 60.4987 36.2114C60.5097 36.9122 60.4855 37.6139 60.5105 38.3141C60.5221 38.6375 60.3276 38.5816 60.1521 38.5686C59.9844 38.5562 59.7425 38.6891 59.7446 38.3234C59.7565 36.308 59.7528 34.2926 59.7465 32.2772C59.7459 32.0816 59.8037 32.0188 60.001 32.02C61.7305 32.0306 63.4605 32.0094 65.1893 32.0449C66.3793 32.0694 66.8613 32.5956 66.8902 33.7751C66.8939 33.9252 66.894 34.0756 66.8895 34.2257C66.8626 35.1289 66.6466 35.3975 65.6744 35.6365Z" fill="#FDFDFD"/>
<path d="M72.7682 35.3059C72.7682 34.3297 72.7778 33.3534 72.7619 32.3775C72.7575 32.1062 72.8159 32.014 73.109 32.0163C74.9382 32.0307 76.7678 32.0297 78.5972 32.017C78.8673 32.0151 78.9321 32.0938 78.9261 32.3519C78.9204 32.5927 78.8887 32.7019 78.6044 32.6993C77.0382 32.6849 75.4717 32.701 73.9056 32.6853C73.5928 32.6821 73.4955 32.7675 73.5139 33.0804C73.5412 33.5418 73.5373 34.0069 73.515 34.4689C73.5011 34.7564 73.5762 34.8534 73.8833 34.8499C75.3616 34.8331 76.8404 34.8421 78.3189 34.8425C78.682 34.8426 78.8416 35.0756 78.708 35.4069C78.6395 35.5769 78.4928 35.4972 78.3844 35.4976C76.8933 35.5033 75.4021 35.5099 73.9112 35.4944C73.6069 35.4912 73.4974 35.5601 73.5134 35.8811C73.5409 36.4304 73.5418 36.9832 73.5132 37.5323C73.4961 37.8595 73.6155 37.9171 73.9147 37.9143C75.4808 37.8996 77.0472 37.9072 78.6135 37.9076C78.9467 37.9077 79.119 38.1863 78.9816 38.4901C78.9309 38.602 78.8383 38.5711 78.7586 38.5712C76.8415 38.5732 74.9243 38.5683 73.0072 38.5781C72.75 38.5795 72.7662 38.4438 72.7668 38.2719C72.7697 37.2832 72.7682 36.2946 72.7682 35.3059Z" fill="#FDFDFD"/>
<path d="M92.1178 38.5258C91.5053 38.7165 91.1224 38.5097 90.9469 37.9365C90.7257 37.2145 90.2477 37.0305 89.5102 37.0726C88.2734 37.1431 87.0297 37.0987 85.789 37.0857C85.5542 37.0833 85.4199 37.1529 85.3287 37.3647C85.2449 37.5592 85.0994 37.7308 85.0372 37.93C84.8486 38.5341 84.448 38.703 83.8615 38.5367C83.8503 38.4167 83.9471 38.3242 84.0056 38.219C85.0998 36.2534 86.2011 34.2916 87.2862 32.321C87.4225 32.0733 87.5813 31.9817 87.8479 32.022C88.1324 32.065 88.4316 31.9161 88.6469 32.3095C89.7388 34.3048 90.8686 36.2793 91.9844 38.2616C92.0322 38.3466 92.0725 38.4358 92.1178 38.5258Z" fill="#FDFDFD"/>
<path d="M109.974 32.0234C111.026 32.0234 112.078 32.0331 113.13 32.0167C113.401 32.0125 113.463 32.0969 113.459 32.3529C113.454 32.5971 113.415 32.7058 113.133 32.6992C112.32 32.68 111.505 32.7078 110.691 32.6848C110.369 32.6756 110.303 32.7828 110.306 33.0863C110.321 34.7997 110.303 36.5136 110.322 38.227C110.326 38.5543 110.196 38.5762 109.934 38.5812C109.656 38.5865 109.548 38.5322 109.551 38.2192C109.568 36.4932 109.553 34.767 109.566 33.041C109.568 32.7638 109.5 32.6785 109.215 32.6853C108.388 32.7053 107.561 32.6769 106.735 32.7002C106.417 32.7093 106.449 32.5431 106.437 32.3325C106.424 32.0932 106.49 32.0139 106.743 32.0173C107.82 32.0318 108.897 32.0234 109.974 32.0234Z" fill="#FCFCFC"/>
<path d="M97.2168 35.2953C97.2168 34.3316 97.2307 33.3676 97.2089 32.4044C97.2016 32.0853 97.3022 32.0124 97.6065 32.012C97.9028 32.0116 97.9793 32.0933 97.9769 32.3873C97.9626 34.0892 97.982 35.7915 97.9602 37.4934C97.9555 37.8552 98.073 37.9186 98.4005 37.9145C99.7661 37.8974 101.132 37.9119 102.498 37.9031C102.745 37.9015 102.884 37.9186 102.882 38.2336C102.88 38.5234 102.795 38.5814 102.521 38.5792C100.867 38.5664 99.2131 38.5651 97.5591 38.5803C97.2698 38.5829 97.2055 38.499 97.2102 38.2238C97.227 37.2479 97.2168 36.2715 97.2168 35.2953Z" fill="#FCFCFC"/>
<path d="M21.0842 38.5776C17.111 38.5776 13.1378 38.5821 9.16458 38.5696C8.832 38.5685 8.70649 38.6503 8.756 38.983C8.7779 39.1299 8.76405 39.2832 8.75676 39.4331C8.7399 39.7764 8.54404 39.9806 8.21266 39.9843C6.97195 39.9978 5.73095 39.997 4.49024 39.9843C4.15239 39.9808 3.95044 39.7581 3.94743 39.4277C3.93554 38.1009 3.93493 36.7738 3.94705 35.447C3.95051 35.0733 4.1867 34.8947 4.59844 34.8876C5.26338 34.876 5.26338 34.876 5.26338 34.2089C5.26338 25.9718 5.26059 17.7347 5.27248 9.49757C5.27301 9.11728 5.18332 9.00532 4.79844 9.023C4.09197 9.05558 3.94095 8.88154 3.9408 8.17304C3.9405 7.00878 3.9396 5.8446 3.94118 4.68034C3.94193 4.10908 4.11424 3.93166 4.67022 3.93083C5.79829 3.92902 6.92628 3.9288 8.05435 3.9309C8.58603 3.93196 8.75307 4.0981 8.75976 4.61871C8.76857 5.30035 8.76857 5.30035 9.45013 5.30035H32.763C33.3596 5.30035 33.359 5.30028 33.3644 4.71683C33.3653 4.61698 33.3622 4.51495 33.3811 4.41781C33.4408 4.10968 33.6165 3.93008 33.948 3.93038C35.1638 3.93151 36.3796 3.92699 37.5954 3.93293C37.9917 3.93489 38.1772 4.11901 38.196 4.54272C38.2154 4.98004 38.2034 5.41879 38.2037 5.85686C38.2043 6.64558 38.2077 7.43421 38.2027 8.22285C38.1985 8.86499 38.0297 9.03053 37.4012 9.03263C36.7186 9.03504 36.7186 9.03504 36.7186 9.72413C36.7186 17.9487 36.7181 26.1733 36.7198 34.3979C36.7199 34.9647 36.6486 34.8785 37.2252 34.8872C37.3379 34.8889 37.4508 34.8853 37.5636 34.8879C37.9733 34.8975 38.1866 35.0629 38.1918 35.4712C38.2084 36.7852 38.2087 38.0998 38.1908 39.4138C38.1853 39.8141 37.9466 39.9892 37.5086 39.9906C36.368 39.9941 35.2274 39.9937 34.0869 39.9909C33.5808 39.9897 33.3838 39.7944 33.3641 39.2917C33.3361 38.5776 33.3361 38.5776 32.6279 38.5776C28.78 38.5776 24.9321 38.5776 21.0842 38.5776Z" fill="#FDFDFD"/>
<path d="M84.1076 53.0095C83.8023 53.5581 83.36 53.9086 82.7011 53.9197C82.0335 53.931 81.5253 53.6312 81.2327 53.0533C80.5909 51.7854 80.5905 50.482 81.2811 49.2472C81.9041 48.1333 83.3338 48.1506 84.0266 49.2288C84.4119 49.8284 84.5163 50.5032 84.5144 51.201C84.5098 51.8333 84.4197 52.4487 84.1076 53.0095ZM86.2027 49.7712C85.8087 48.1768 84.592 47.0869 83.1053 46.9864C81.2968 46.8642 79.9227 47.7086 79.2913 49.3383C78.9004 50.3467 78.856 51.3838 79.0747 52.4344C79.4338 54.16 80.7038 55.3026 82.347 55.3902C84.1536 55.4865 85.5834 54.5101 86.1171 52.8069C86.2863 52.2673 86.3647 51.7112 86.364 51.063C86.3801 50.6788 86.3139 50.2211 86.2027 49.7712" fill="#373435"/>
<path d="M139.843 54.1205C139.224 54.1354 138.768 53.6789 138.762 53.0375C138.756 52.4638 139.202 51.8752 139.654 51.8606C140.195 51.8431 140.817 52.5147 140.82 53.1192C140.823 53.7012 140.427 54.1065 139.843 54.1205ZM139.78 48.4995C140.315 48.5056 140.666 48.8789 140.67 49.4459C140.674 49.9351 140.27 50.4647 139.901 50.4541C139.441 50.4409 138.878 49.8782 138.866 49.4204C138.852 48.8887 139.245 48.4932 139.78 48.4995M141.483 51.1625C141.41 51.1209 141.31 51.1117 141.274 51.0048C141.372 50.9345 141.476 50.8667 141.572 50.7901C142.639 49.9478 142.542 48.3527 141.383 47.6403C140.416 47.0458 138.859 47.1508 137.984 47.8696C136.948 48.7206 136.987 50.2458 138.064 51.0407C138.137 51.0948 138.258 51.1093 138.262 51.2413C138.177 51.2916 138.09 51.3406 138.005 51.3932C136.603 52.2623 136.624 54.223 138.082 54.9925C139.232 55.6001 140.441 55.5819 141.562 54.9087C143.004 54.043 142.94 51.9959 141.483 51.1625" fill="#373435"/>
<path d="M105.925 53.0754C105.879 53.2297 105.829 53.3868 105.753 53.5277C105.415 54.1511 104.759 54.1633 104.392 53.5578C104.214 53.2644 104.13 52.9393 104.087 52.6036C103.959 51.6075 103.942 50.6142 104.18 49.6292C104.234 49.4093 104.316 49.2006 104.446 49.0151C104.798 48.5116 105.37 48.5244 105.703 49.0405C105.933 49.3969 106.005 49.8044 106.055 50.2121C106.101 50.583 106.108 50.9587 106.129 51.2849C106.092 51.9179 106.097 52.5071 105.925 53.0754ZM107.355 48.7248C107.035 48.0666 106.563 47.5722 105.842 47.3628C104.491 46.9706 103.238 47.5785 102.687 48.9569C102.053 50.5445 102.071 52.1633 102.697 53.7487C103.103 54.7773 103.873 55.3815 105.024 55.3927C106.127 55.4034 106.96 54.821 107.427 53.7351C107.759 52.9618 107.836 52.1433 107.865 51.3048C107.838 50.4235 107.753 49.5436 107.355 48.7248" fill="#373435"/>
<path d="M127.945 53.1183C127.907 53.2849 127.829 53.4492 127.739 53.5959C127.412 54.129 126.804 54.1374 126.456 53.6165C126.214 53.2538 126.134 52.8344 126.084 52.413C126.043 52.0541 126.036 51.6911 126.018 51.4021C126.044 50.7308 126.054 50.1308 126.229 49.5504C126.404 48.9678 126.719 48.6441 127.1 48.646C127.49 48.6481 127.808 48.9567 127.951 49.5599C128.232 50.7433 128.219 51.9338 127.945 53.1183ZM129.458 48.9072C129.074 47.9017 128.34 47.301 127.215 47.266C126.07 47.2305 125.289 47.7785 124.793 48.7756C124.394 49.5779 124.293 50.4435 124.269 51.3358C124.293 52.1539 124.382 52.9712 124.717 53.7417C125.166 54.7733 125.914 55.3973 127.081 55.3906C128.239 55.3839 129.038 54.7917 129.445 53.7414C130.066 52.1426 130.071 50.5109 129.458 48.9072" fill="#373435"/>
<path d="M99.6008 52.9795C99.5616 53.1357 99.5114 53.2918 99.4446 53.438C99.3032 53.7479 99.1033 53.9915 98.7194 53.9916C98.339 53.9918 98.1306 53.7526 97.9786 53.45C97.791 53.0766 97.7236 52.6694 97.6887 52.2578C97.6104 51.3338 97.5944 50.4115 97.8664 49.5115C98.0407 48.9346 98.3454 48.6407 98.7233 48.6462C99.1023 48.6517 99.3991 48.9526 99.5663 49.528C99.7385 50.121 99.7689 50.7314 99.7558 51.3449C99.7671 51.8957 99.7354 52.4432 99.6008 52.9795ZM101.004 48.7251C100.572 47.8368 99.8842 47.3053 98.8622 47.266C97.8058 47.2252 97.0336 47.6815 96.5123 48.5852C96.1885 49.1467 96.0227 49.7605 95.9552 50.3985C95.8315 51.5686 95.8805 52.7241 96.371 53.8184C96.7088 54.5722 97.2373 55.1347 98.0767 55.3221C99.4146 55.6207 100.551 55.0086 101.091 53.7019C101.406 52.939 101.506 52.1359 101.495 51.316C101.507 50.4191 101.4 49.541 101.004 48.7251Z" fill="#373435"/>
<path d="M134.351 52.9161C134.3 53.1618 134.222 53.3985 134.086 53.611C133.762 54.1207 133.167 54.1344 132.824 53.634C132.5 53.1624 132.451 52.6098 132.401 52.0633C132.38 51.8281 132.398 51.5894 132.398 51.3522C132.371 50.7885 132.407 50.2293 132.545 49.6807C132.603 49.4505 132.683 49.2279 132.819 49.0292C133.175 48.5069 133.768 48.5158 134.097 49.058C134.336 49.4511 134.403 49.8963 134.448 50.3457C134.535 51.2072 134.526 52.0647 134.351 52.9161ZM135.769 48.8142C135.376 47.8409 134.628 47.2892 133.54 47.2647C132.446 47.2399 131.68 47.7526 131.184 48.6993C130.756 49.5176 130.637 50.4043 130.637 51.3139C130.634 52.1843 130.74 53.0361 131.111 53.8347C131.567 54.815 132.308 55.3943 133.423 55.3911C134.545 55.3879 135.348 54.8355 135.761 53.8183C136.433 52.1635 136.438 50.4724 135.769 48.8142" fill="#373435"/>
<path d="M92.5026 51.2209C91.9638 51.3119 91.5033 51.0377 91.3408 50.5119C91.1991 50.0537 91.2221 49.5965 91.4342 49.1638C91.6058 48.8137 91.8878 48.6032 92.2942 48.6059C92.6826 48.6085 92.9552 48.8051 93.1297 49.1413C93.2997 49.4689 93.364 49.8222 93.3624 50.189C93.3662 50.7774 93.0777 51.1237 92.5026 51.2209ZM94.9911 49.4384C94.7291 48.3751 94.126 47.5726 92.9914 47.3352C91.8945 47.1059 90.927 47.3732 90.1807 48.247C89.3047 49.2726 89.3055 50.898 90.1531 51.8334C90.7836 52.5292 92.2232 52.9306 93.351 52.0063C93.0505 53.1142 92.2932 53.7599 91.2199 53.9039C90.8835 53.9492 90.4025 53.7927 90.2461 54.0444C90.0829 54.3069 90.2063 54.7471 90.2045 55.1097C90.2045 55.1222 90.206 55.1349 90.2044 55.1471C90.1798 55.3284 90.2654 55.3966 90.4398 55.3853C90.8017 55.3619 91.1674 55.3671 91.5254 55.3173C92.9788 55.1156 94.0844 54.4041 94.6805 53.0339C95.1835 51.8778 95.2926 50.6627 94.9911 49.4384Z" fill="#373435"/>
<path d="M82.2047 8.30185C84.1845 8.30185 86.1642 8.30297 88.144 8.30102C88.5963 8.30057 89.0416 8.34564 89.4866 8.43232C90.4823 8.6263 91.092 9.22698 91.3053 10.197C91.6109 11.5861 91.575 12.979 91.2185 14.3579C91.0198 15.1259 90.5242 15.6027 89.7559 15.8161C89.0628 16.0088 88.3568 16.1064 87.642 16.108C83.6826 16.1166 79.723 16.1117 75.7635 16.1213C75.5103 16.1219 75.4569 16.0441 75.4577 15.8061C75.4661 13.4033 75.4673 11.0004 75.4563 8.59763C75.4552 8.33608 75.5461 8.29643 75.7768 8.29726C77.9194 8.30501 80.062 8.30185 82.2047 8.30185Z" fill="#3D522C"/>
<path d="M111.934 19.3237H99.2751C101.375 15.5471 103.459 11.8006 105.565 8.01357C107.702 11.8085 109.808 15.5485 111.934 19.3237Z" fill="#3D522C"/>
<path d="M122.637 37.9047C122.011 37.9047 121.384 37.9233 120.759 37.9002C119.89 37.8679 119.625 37.6254 119.519 36.7686C119.391 35.7337 119.424 34.695 119.543 33.6622C119.614 33.0473 119.871 32.7909 120.53 32.7329C121.991 32.6042 123.457 32.595 124.919 32.723C125.413 32.7662 125.687 33.0374 125.755 33.5433C125.908 34.6758 125.902 35.8146 125.763 36.9472C125.685 37.5808 125.363 37.8358 124.701 37.8962C124.015 37.9588 123.326 37.9713 122.637 37.9047Z" fill="#3D522C"/>
<path d="M135.727 32.7104C136.404 32.7104 137.081 32.693 137.757 32.7169C138.167 32.7313 138.629 32.7503 138.803 33.2197C139.015 33.7904 139.022 34.3838 138.679 34.9135C138.495 35.1975 138.142 35.2423 137.833 35.2462C136.392 35.2649 134.951 35.2578 133.509 35.2661C133.331 35.2672 133.306 35.1818 133.307 35.0351C133.311 34.3341 133.317 33.633 133.304 32.9322C133.3 32.7053 133.416 32.6991 133.584 32.7001C134.298 32.7046 135.013 32.702 135.727 32.702C135.727 32.7048 135.727 32.7076 135.727 32.7104Z" fill="#3D522C"/>
<path d="M62.9158 32.7087C63.5785 32.7087 64.2416 32.6947 64.9039 32.7121C65.8393 32.7366 66.1355 33.0541 66.1243 33.9751C66.1131 34.905 65.7934 35.2469 64.8589 35.2578C63.4961 35.2738 62.133 35.2584 60.7701 35.268C60.5529 35.2696 60.4951 35.2 60.4987 34.9908C60.5103 34.3166 60.5115 33.6419 60.4982 32.9678C60.4939 32.7483 60.5705 32.6947 60.7776 32.6978C61.4902 32.7087 62.203 32.702 62.9158 32.702C62.9158 32.7042 62.9158 32.7064 62.9158 32.7087Z" fill="#3D522C"/>
<path d="M85.8416 36.4224C86.555 35.1386 87.2497 33.8889 87.9673 32.5978C88.6951 33.8905 89.3968 35.1369 90.1205 36.4224H85.8416Z" fill="#3D522C"/>
<path d="M34.6952 21.9459C34.6952 26.1265 34.6905 30.3073 34.7039 34.4879C34.705 34.8268 34.614 34.9046 34.2884 34.8955C33.4778 34.8727 33.364 35.004 33.3637 35.8238C33.3635 36.4548 33.3635 36.4548 32.7279 36.4548C24.8951 36.4548 17.0624 36.4523 9.2296 36.4629C8.86406 36.4633 8.73735 36.3967 8.74864 35.9992C8.77979 34.8996 8.7521 34.8797 7.64833 34.8953C7.33028 34.8998 7.25706 34.8057 7.25737 34.4977C7.26579 26.1363 7.26602 17.7749 7.25684 9.41353C7.25646 9.08878 7.36105 9.02234 7.66195 9.0258C8.72155 9.03806 8.75909 8.9899 8.7597 7.93249C8.76 7.44671 8.76 7.44641 9.24059 7.44641C17.1234 7.44634 25.0063 7.44634 32.8892 7.44641C33.3634 7.44641 33.3634 7.44686 33.3637 7.93881C33.3638 8.07644 33.3591 8.21436 33.365 8.35183C33.3854 8.83099 33.5855 9.02256 34.0699 9.03249C34.6952 9.04536 34.6952 9.04536 34.6952 9.66665C34.6952 13.7597 34.6952 17.8528 34.6952 21.9459Z" fill="#62BA51"/>
<path d="M13.521 19.9172C14.4062 20.0995 15.1795 20.3259 15.9445 20.5806C17.8429 21.2125 19.4708 22.2449 20.7014 23.8439C20.9019 24.1045 21.0076 23.9255 21.1413 23.8149C22.4822 22.7048 23.8407 21.6176 25.301 20.665C26.1092 20.1379 26.9401 19.6515 27.8497 19.3154C27.9861 19.265 28.1177 19.1785 28.3205 19.2183C25.2243 23.3308 22.5637 27.6588 20.9615 32.679C19.8745 27.5841 16.9912 23.6309 13.521 19.9172Z" fill="#FDFDFD"/>
<path d="M28.9861 18.3616C27.7806 15.2553 25.4961 13.4729 22.2319 12.947C18.7154 12.3804 15.1981 14.1124 13.4912 17.2034C13.2737 17.5972 13.087 18.0057 12.959 18.4385C12.8894 18.4607 12.8585 18.4404 12.8776 18.3649C13.2221 14.8334 16.0946 11.8454 19.6742 11.2954C23.9739 10.6347 27.9391 13.2787 28.9365 17.4749C28.9941 17.7171 29.0232 17.966 29.0654 18.2118C29.0894 18.2884 29.1314 18.3744 28.9861 18.3616Z" fill="#FDFDFD"/>
<path d="M18.3667 18.8013C18.3632 17.2919 19.4786 16.1033 20.9025 16.0988C22.3186 16.0945 23.4677 17.293 23.4739 18.7808C23.4802 20.2539 22.3276 21.4822 20.9225 21.5001C19.5275 21.5178 18.3702 20.2957 18.3667 18.8013Z" fill="#FDFDFD"/>
<path d="M28.9861 18.3616C29.0566 18.3349 29.0427 18.2637 29.0654 18.2118C29.1652 18.3519 29.1375 18.506 29.1163 18.699C29.0313 18.5776 28.9868 18.479 28.9861 18.3616Z" fill="#B0DCA8"/>
<path d="M12.8775 18.3648C12.9046 18.3894 12.9317 18.4139 12.9588 18.4385C12.9618 18.5403 12.936 18.6273 12.8331 18.6821C12.7966 18.5647 12.7946 18.459 12.8775 18.3648Z" fill="#9BD390"/>
<path d="M176.414 0.568369C173.836 0.568369 171.746 2.65821 171.746 5.23609C171.746 7.81397 173.836 9.90381 176.414 9.90381C178.992 9.90381 181.082 7.81397 181.082 5.23609C181.082 2.65821 178.992 0.568369 176.414 0.568369ZM176.414 1.08658C178.702 1.08658 180.564 2.94805 180.564 5.23609C180.564 7.52412 178.702 9.3856 176.414 9.3856C174.126 9.3856 172.265 7.52412 172.265 5.23609C172.265 2.94805 174.126 1.08658 176.414 1.08658" fill="#373435"/>
<path d="M175.608 3.63373V4.15254H174.754V6.83862H174.111V4.15254H173.257V3.63373H175.608Z" fill="#373435"/>
<path d="M179.571 3.63373V6.83862H178.928V4.75405L178.069 6.83862H177.582L176.719 4.75405V6.83862H176.076V3.63373H176.807L177.826 6.01673L178.845 3.63373H179.571Z" fill="#373435"/>
</svg>
